# xmcd CD database file
#
# Track frame offsets:
#	150
#	19547
#	43892
#	66455
#	96090
#	114462
#	136972
#	163185
#	199285
#
# Disc length: 2966 seconds
#
# Revision: 0
# Processed by: cddbd v1.5.1PL0 Copyright (c) Steve Scherf et al.
# Submitted via: CDex 1.51
#
DISCID=800b9409
DTITLE=Corradi Violaine - Passages
DYEAR=1996
DGENRE=New Age
TTITLE0=Atoh Ve Malkuth
TTITLE1=Initium
TTITLE2=Areh Nahum
TTITLE3=Oikoumenè
TTITLE4=Élégie
TTITLE5=Passages
TTITLE6=Ikaros
TTITLE7=Yeshoua Sum
TTITLE8=Origines
EXTD=YEAR: 1996
EXTT0=
EXTT1=
EXTT2=
EXTT3=
EXTT4=
EXTT5=
EXTT6=
EXTT7=
EXTT8=
PLAYORDER=
